<svg xmlns="http://www.w3.org/2000/svg" version="1.1" fill="#ffffff" viewBox="-5.0 -10.0 110.0 115.0">
 <path d="m10.762 41.617c-0.023438 0-0.042969 0-0.0625 0.003906h-0.007813c-1.6953 0.03125-3.0547 1.418-3.0547 3.1211v10.539c0 1.7266 1.3984 3.125 3.125 3.125 1.7227 0 3.125-1.3984 3.125-3.125v-10.539c0-1.7266-1.3984-3.125-3.125-3.125zm49.047 0c-0.019532 0-0.039063 0-0.0625 0.003906h-0.003906c-1.6953 0.035156-3.0586 1.418-3.0586 3.1211v10.539c0 1.7266 1.3984 3.125 3.125 3.125 1.7266 0 3.125-1.3984 3.125-3.125v-10.539c0-1.7266-1.3984-3.125-3.125-3.125zm29.43 0c-0.019531 0-0.039062 0-0.0625 0.003906h-0.003906c-1.6953 0.035156-3.0586 1.418-3.0586 3.1211v10.539c0 1.7266 1.4023 3.125 3.125 3.125 1.7266 0 3.125-1.3984 3.125-3.125v-10.539c0-1.7266-1.3984-3.125-3.125-3.125zm-9.8086-10.184h-0.0625-0.007813c-1.6914 0.035156-3.0547 1.4219-3.0547 3.125v26.617c0 1.7266 1.3984 3.125 3.125 3.125 1.7266 0 3.125-1.3984 3.125-3.125v-26.617c0-1.7266-1.3984-3.125-3.125-3.125zm-58.859 2.1445h-0.0625-0.003906c-1.6953 0.035156-3.0586 1.4219-3.0586 3.125v26.617c0 1.7266 1.3984 3.125 3.125 3.125 1.7266 0 3.125-1.3984 3.125-3.125v-26.617c0-1.7266-1.3984-3.125-3.125-3.125zm29.43 0h-0.0625-0.003906c-1.6953 0.035156-3.0586 1.4219-3.0586 3.125v26.617c0 1.7266 1.3984 3.125 3.125 3.125s3.125-1.3984 3.125-3.125v-26.617c0-1.7266-1.3984-3.125-3.125-3.125zm-9.832-11.141h-0.0625-0.007813c-1.707 0.035156-3.0781 1.4297-3.0781 3.1484v48.832c0 1.7227 1.3984 3.125 3.125 3.125 1.7266 0 3.125-1.4023 3.125-3.125l0.046875-48.832c0-1.7422-1.4102-3.1484-3.1484-3.1484zm-9.7656 0.019531c-0.019532 0-0.042969 0.003907-0.0625 0.003907h-0.003906c-1.707 0.035156-3.082 1.4297-3.082 3.1445v48.832c0 1.7266 1.3984 3.125 3.125 3.125 1.7266 0 3.125-1.3984 3.125-3.125v0.003906l0.046875-48.832v-0.003906c0-1.7383-1.4102-3.1484-3.1484-3.1484zm39.195 0c-0.023437 0-0.042968 0.003907-0.0625 0.003907h-0.007812c-1.707 0.035156-3.0781 1.4297-3.0781 3.1445v48.832c0 1.7266 1.3984 3.125 3.125 3.125 1.7266 0 3.125-1.3984 3.125-3.125v0.003906l0.046875-48.832v-0.003906c0-1.7383-1.4102-3.1484-3.1484-3.1484z"/>
</svg>