<?xml version="1.0" encoding="utf-8"?>
<!-- Uploaded to: SVG Repo, www.svgrepo.com, Generator: SVG Repo Mixer Tools -->
<svg width="800px" height="800px" viewBox="0 0 24 24" fill="none" xmlns="http://www.w3.org/2000/svg">
<g id="Media / Volume_Max">
<path id="Vector" d="M18.82 4.68652C19.8191 5.61821 20.6167 6.74472 21.1636 7.99657C21.7105 9.24842 21.9952 10.5991 21.9999 11.9652C22.0047 13.3313 21.7295 14.6838 21.1914 15.9395C20.6532 17.1951 19.8635 18.3272 18.8709 19.2658M16.092 7.61194C16.6915 8.17095 17.17 8.84686 17.4982 9.59797C17.8263 10.3491 17.9971 11.1595 18 11.9791C18.0028 12.7988 17.8377 13.6103 17.5148 14.3637C17.1919 15.1171 16.7181 15.7963 16.1225 16.3595M7.4803 15.4069L9.15553 17.48C10.0288 18.5607 10.4655 19.1011 10.848 19.1599C11.1792 19.2108 11.5138 19.0925 11.7394 18.8448C12 18.5586 12 17.8638 12 16.4744V7.52572C12 6.13627 12 5.44155 11.7394 5.15536C11.5138 4.90761 11.1792 4.78929 10.848 4.84021C10.4655 4.89904 10.0288 5.43939 9.15553 6.52009L7.4803 8.59319C7.30388 8.81151 7.21567 8.92067 7.10652 8.99922C7.00982 9.06881 6.90147 9.12056 6.78656 9.15204C6.65687 9.18756 6.51652 9.18756 6.23583 9.18756H4.8125C4.0563 9.18756 3.6782 9.18756 3.37264 9.2885C2.77131 9.48716 2.2996 9.95887 2.10094 10.5602C2 10.8658 2 11.2439 2 12.0001C2 12.7563 2 13.1344 2.10094 13.4399C2.2996 14.0413 2.77131 14.513 3.37264 14.7116C3.6782 14.8126 4.0563 14.8126 4.8125 14.8126H6.23583C6.51652 14.8126 6.65687 14.8126 6.78656 14.8481C6.90147 14.8796 7.00982 14.9313 7.10652 15.0009C7.21567 15.0794 7.30388 15.1886 7.4803 15.4069Z" stroke="#ffffff" stroke-width="2" stroke-linecap="round" stroke-linejoin="round"/>
</g>
</svg>