<svg xmlns="http://www.w3.org/2000/svg" xmlns:xlink="http://www.w3.org/1999/xlink" version="1.1" x="0px" y="0px" viewBox="0 0 1024 1024" style="fill: rgb(120, 120, 120);" xml:space="preserve"><g><g><g><path d="M758.9,485.2c-25.4,25.4-50.8,50.8-76.3,76.3L533.3,710.8c-2.2,2.2-4.8,4-7.5,5.4c-4.9,2.5-10.4,3.5-15.8,3.2     c-7-0.5-13.9-3.3-19.1-8.5c-25.4-25.4-50.8-50.8-76.3-76.3L265.3,485.2c-11.1-11.1-11.9-31.5,0-42.4c12-11,30.6-11.9,42.4,0     c25.4,25.4,50.8,50.8,76.3,76.3c32.7,32.7,65.3,65.3,98,98V219.6c0-21.6-0.4-43.3,0-64.9v-0.9c0-15.7,13.8-30.7,30-30     c16.3,0.7,30,13.2,30,30v463.5l174.5-174.5c11.1-11.1,31.5-11.9,42.4,0C769.9,454.8,770.8,473.4,758.9,485.2z"/></g></g><g><g><path d="M873.6,669.3c0,19.7,0,39.5,0,59.2c0,30.6,0,41.2,0,71.8c0,8.4,0.6,17.2-0.5,25.5c0.4-2.7,0.7-5.3,1.1-8     c-0.7,4.5-1.9,8.8-3.6,13c1-2.4,2-4.8,3-7.2c-1.2,2.8-2.7,5.6-4.4,8.2c-3.7,5.6,2.7-2.8,1.1-1.3c-1.1,1.1-2,2.3-3.1,3.4     c-0.9,0.9-1.9,1.8-2.9,2.7c-3.6,3.3,6.9-4.7,0.8-0.7c-2.6,1.7-5.3,3.1-8.2,4.4c2.4-1,4.8-2,7.2-3c-4.2,1.7-8.5,2.9-13,3.6     c2.7-0.4,5.3-0.7,8-1.1c-7.8,1-15.9,0.5-23.7,0.5c-16.4,0-32.8,0-49.2,0c-24.4,0-48.9,0-73.3,0c-30,0-59.9,0-89.9,0     c-32.9,0-65.8,0-98.6,0c-33.4,0-66.7,0-100.1,0c-30.9,0-61.8,0-92.7,0c-26,0-52.1,0-78.1,0c-18.6,0-37.1,0-55.7,0     c-8.5,0-17,0-25.5,0c-2.6,0-5.1-0.2-7.7-0.5c2.7,0.4,5.3,0.7,8,1.1c-4.5-0.7-8.8-1.9-13-3.6c2.4,1,4.8,2,7.2,3     c-2.8-1.2-5.6-2.7-8.2-4.4c-5.6-3.7,2.8,2.7,1.3,1.1c-1.1-1.1-2.3-2-3.4-3.1c-0.9-0.9-1.8-1.9-2.7-2.9c-3.3-3.6,4.7,6.9,0.7,0.8     c-1.7-2.6-3.1-5.3-4.4-8.2c1,2.4,2,4.8,3,7.2c-1.7-4.2-2.9-8.5-3.6-13c0.4,2.7,0.7,5.3,1.1,8c-0.9-7-0.5-14.2-0.5-21.2     c0-13.4,0-26.8,0-40.2c0-31,0-42.1,0-73.1c0-7.3,0-14.7,0-22c0-15.7-13.8-30.7-30-30c-16.3,0.7-30,13.2-30,30     c0,39.8,0,59.5,0,99.3c0,16.5-0.1,32.9,0,49.4c0.2,44.9,36.4,81.7,81.4,82.2c16,0.2,32.1,0,48.1,0c39.4,0,78.9,0,118.3,0     c51.4,0,102.9,0,154.3,0c52.8,0,105.5,0,158.3,0c43.3,0,86.6,0,129.9,0c22.7,0,45.4,0,68.1,0c24.8,0,49.4-9.1,65.3-28.8     c12.6-15.6,19.5-33.6,19.5-53.8c0-5.9,0-11.8,0-17.7c0-46.6,0-73.1,0-119.7c0-3.6,0-7.3,0-10.9c0-15.7-13.8-30.7-30-30     C887.3,640,873.6,652.4,873.6,669.3L873.6,669.3z"/></g></g></g></svg>