<svg xmlns="http://www.w3.org/2000/svg" version="1.1" fill="#ffffff" viewBox="-5.0 -10.0 110.0 115.0">
 <path d="m58.105 9.9062v7.918c0 2.8203 2.2773 5.0898 5.0469 5.0938h14.559v-1.0273c0-0.75-0.32031-1.4805-1.0117-1.8828l-17.031-9.832c-0.31641-0.18359-0.65625-0.26953-1-0.26953zm-23.746 28.336c1.1133 0 2.0156 0.90234 2.0156 2.0156 0 1.1133-0.90234 2.0156-2.0156 2.0156s-2.0156-0.90234-2.0156-2.0156c0-1.1133 0.90234-2.0156 2.0156-2.0156zm31.281 0c1.1133 0 2.0156 0.90234 2.0156 2.0156 0 1.1133-0.90234 2.0156-2.0156 2.0156h-22.918c-1.1133 0-2.0156-0.90234-2.0156-2.0156 0-1.1133 0.90234-2.0156 2.0156-2.0156zm-31.281 14.32v0.003906c1.1133-0.003906 2.0156 0.89844 2.0156 2.0117v0.003906c0 1.1133-0.90234 2.0156-2.0156 2.0156s-2.0156-0.90234-2.0156-2.0156v-0.003906c0-1.1133 0.90234-2.0156 2.0156-2.0156v0.003906zm31.281 0.003906c1.1133 0 2.0156 0.90234 2.0156 2.0156s-0.90234 2.0156-2.0156 2.0156h-22.918c-1.1133 0-2.0156-0.90234-2.0156-2.0156s0.90234-2.0156 2.0156-2.0156zm-31.281 14.32c1.1133 0 2.0156 0.90234 2.0156 2.0156 0 1.1133-0.90234 2.0156-2.0156 2.0156s-2.0156-0.90234-2.0156-2.0156c0-1.1133 0.90234-2.0156 2.0156-2.0156zm31.281 0v0.003906c1.1133-0.003906 2.0156 0.89844 2.0156 2.0117 0 1.1133-0.90234 2.0156-2.0156 2.0156h-22.918c-1.1133 0-2.0156-0.90234-2.0156-2.0156 0-1.1133 0.90234-2.0156 2.0156-2.0156h22.918v0.003906zm-31.688-56.977h-2.5625c-5.0391 0-9.1055 4.082-9.1055 9.1211v61.938c0 5.0234 4.0586 9.1172 9.0742 9.125h37.223c5.0391 0 9.125-4.0859 9.125-9.125 0-0.003906 0.003907-54.016 0.003907-54.016l-14.562-0.003906c-5.0156-0.003907-9.0742-4.1016-9.0742-9.125 0-0.003907-0.007813-7.918-0.007813-7.918z"/>
</svg>