<?xml version="1.0" encoding="utf-8"?>
<svg viewBox="0 0 500 500" style="shape-rendering: geometricprecision;" xmlns="http://www.w3.org/2000/svg">
  <ellipse style="fill: rgb(75, 189, 224);" cx="250" cy="249.836" rx="250" ry="249.836"/>
  <g transform="matrix(1, 0, 0, 1, 156.222626, 83.972633)">
    <path class="fil0" d="M111.19 235.53c0,9.35 -7.58,16.93 -16.93,16.93 -9.35,0 -16.93,-7.58 -16.93,-16.93l0 -2.75c0,-30.41 17.1,-56.91 44.83,-69.41 24.29,-10.97 39.82,-35.13 39.82,-61.77 0,-37.42 -30.31,-67.73 -67.73,-67.73 -26.82,0 -51.02,15.63 -61.95,40.15 -3.79,8.51 -13.78,12.32 -22.29,8.53 -8.51,-3.79 -12.32,-13.78 -8.53,-22.29 16.29,-36.55 52.76,-60.25 92.77,-60.25 56.12,0 101.6,45.47 101.6,101.6 0,39.89 -23.45,76.17 -59.8,92.59 -15.66,7.07 -24.85,21.43 -24.85,38.59l0 2.75z" style="fill-rule: nonzero; fill: rgb(255, 255, 255);"/>
    <path class="fil1" d="M94.25 281.86c14.25,0 25.8,11.55 25.8,25.8 0,14.25 -11.55,25.8 -25.8,25.8 -14.25,0 -25.8,-11.55 -25.8,-25.8 0,-14.25 11.55,-25.8 25.8,-25.8z" style="fill: rgb(255, 255, 255);"/>
  </g>
</svg>