<svg xmlns="http://www.w3.org/2000/svg" version="1.1" fill="#ffffff" viewBox="-5.0 -10.0 110.0 115.0">
 <path d="m55.766 22.477c6.2109 0 11.25 5.0352 11.25 11.246 0 6.2148-5.0391 11.25-11.25 11.25s-11.246-5.0352-11.246-11.25c0-6.2109 5.0352-11.246 11.246-11.246zm-27.398 19.828v0.003906c1.8516 0 3.6914 0.70312 5.1016 2.1094l18.473 18.477c0.6875 0.6875 1.5898 1.0312 2.4883 1.0312 0.90234 0 1.8008-0.34375 2.4883-1.0312l8.5664-8.5664c1.4102-1.4102 3.25-2.1133 5.1016-2.1133 1.8555 0 3.6953 0.70312 5.1055 2.1133l16.68 16.68 0.007812 0.046876c-0.3125 2.9766-0.69531 5.7266-1.1562 8.1523l-0.003906 0.035157c-0.49219 2.6016-2.7656 4.4844-5.4141 4.4844h-71.609c-2.6484 0-4.9219-1.8828-5.4102-4.4805l-0.007812-0.039063c-0.94922-5.0117-1.5781-11.402-1.8945-18.375l0.007813-0.039062 16.375-16.371c1.4062-1.4102 3.2461-2.1172 5.1016-2.1172zm-14.176-29.551c-4.5352 0-8.2852 3.3438-8.9258 7.6992-0.003906 0.015625-0.007813 0.035156-0.007813 0.035156-1.4297 7.8047-2.1328 18.555-2.1328 29.508 0 11.141 0.71094 22.031 2.1953 29.863l0.003907 0.039063c0.80859 4.2617 4.5312 7.3477 8.8711 7.3477h71.609c4.3398 0 8.0625-3.0859 8.8711-7.3477l0.003907-0.035157c1.4844-7.8359 2.1953-18.727 2.1953-29.867 0-10.949-0.70312-21.703-2.1328-29.508-0.003907-0.015625-0.007813-0.035156-0.007813-0.035156-0.64062-4.3555-4.3945-7.6992-8.9258-7.6992z"/>
</svg>