<?xml version="1.0" encoding="utf-8"?>
<svg viewBox="0 0 500 500" xmlns="http://www.w3.org/2000/svg">
  <path style="fill: rgb(225, 225, 225);" d="M 250 325.564 C 227.948 325.564 210.071 307.682 210.071 285.635 L 210.071 -134.507 C 210.071 -156.559 227.948 -174.436 250 -174.436 C 272.052 -174.436 289.929 -156.559 289.929 -134.507 L 289.929 285.635 C 289.929 307.682 272.052 325.564 250 325.564 Z" transform="matrix(0, 1, -1, 0, 325.563988, -174.435997)"/>
  <path style="fill: rgb(225, 225, 225);" d="M 250 500.492 C 227.948 500.492 210.071 482.61 210.071 460.563 L 210.071 40.421 C 210.071 18.369 227.948 0.492 250 0.492 C 272.052 0.492 289.929 18.369 289.929 40.421 L 289.929 460.563 C 289.929 482.61 272.052 500.492 250 500.492 Z" transform="matrix(0, 1, -1, 0, 500.491992, 0.492008)"/>
  <path style="fill: rgb(225, 225, 225);" d="M 250 675.42 C 227.948 675.42 210.071 657.538 210.071 635.491 L 210.071 215.349 C 210.071 193.297 227.948 175.42 250 175.42 C 272.052 175.42 289.929 193.297 289.929 215.349 L 289.929 635.491 C 289.929 657.538 272.052 675.42 250 675.42 Z" transform="matrix(0, 1, -1, 0, 675.419991, 175.420006)"/>
</svg>