<?xml version="1.0" encoding="utf-8"?>
<svg viewBox="0 0 500 500" xmlns="http://www.w3.org/2000/svg">
  <g transform="matrix(5.46305, 0, 0, 5.46305, 97.538963, -16.217882)" style="">
    <path d="M4.563,37.324l0.066-8.092C5.483,18.214,14.247,9.458,25.263,8.599c12.358-0.958,23.156,8.274,24.113,20.633l0.073,8.092   h-8.092v-6.355c0-7.922-6.424-14.351-14.352-14.351c-7.929,0-14.357,6.429-14.357,14.351v6.355H4.563z" style="fill: rgb(225, 225, 225);"/>
  </g>
  <path d="M 95.809 186.685 L 401.478 186.685 C 414.508 186.685 425.029 197.235 425.029 210.22 L 425.029 445.016 C 425.029 458.035 414.508 468.556 401.478 468.556 L 95.809 468.556 C 82.829 468.556 72.274 458.035 72.274 445.016 L 72.274 210.215 C 72.274 197.235 82.829 186.685 95.809 186.685 Z M 286.333 260.06 C 273.943 239.25 246.983 232.46 226.174 244.845 C 205.365 257.261 198.535 284.195 210.959 305.036 C 214.685 311.296 219.914 316.525 226.174 320.246 L 226.174 414.325 L 271.145 414.325 L 271.145 320.24 C 291.96 307.832 298.745 280.895 286.333 260.06 Z" style="fill: rgb(225, 225, 225);"/>
</svg>