<?xml version="1.0" encoding="utf-8"?>
<svg viewBox="0 0 500 500" xmlns="http://www.w3.org/2000/svg">
  <ellipse style="fill: rgb(236, 171, 52);" cx="250" cy="250.164" rx="250" ry="249.836"/>
  <g transform="matrix(3.342432, 0, 0, 3.342432, 97.593445, 97.720459)" style="">
    <path d="M3.234,90.435h24.283c1.387,0,2.514-1.125,2.514-2.514c0-1.387-1.127-2.512-2.514-2.512H9.299l27.6-27.6   c0.98-0.982,0.98-2.572,0-3.553c-0.982-0.982-2.572-0.982-3.555,0l-27.598,27.6V63.636c0-1.387-1.125-2.512-2.512-2.512   c-1.389,0-2.514,1.125-2.514,2.512v24.285C0.721,89.31,1.846,90.435,3.234,90.435z" style="paint-order: fill; fill-rule: nonzero; fill: rgb(255, 255, 255); stroke: rgb(255, 255, 255); stroke-width: 5.98367px;"/>
    <path d="M54.285,36.86c0.49,0.49,1.135,0.736,1.777,0.736s1.285-0.246,1.775-0.736L85.449,9.256v18.227   c0,1.387,1.125,2.512,2.512,2.512c1.389,0,2.514-1.125,2.514-2.512V3.194c0-1.387-1.125-2.512-2.514-2.512H63.672   c-1.389,0-2.514,1.125-2.514,2.512c0,1.389,1.125,2.514,2.514,2.514h18.221l-27.607,27.6C53.305,34.29,53.305,35.879,54.285,36.86z   " style="paint-order: fill; fill-rule: nonzero; fill: rgb(255, 255, 255); stroke: rgb(255, 255, 255); stroke-width: 5.98367px;"/>
    <path d="M54.285,57.81l27.607,27.6H63.672c-1.389,0-2.514,1.125-2.514,2.512c0,1.389,1.125,2.514,2.514,2.514h24.289   c1.389,0,2.514-1.125,2.514-2.514V63.636c0-1.387-1.125-2.512-2.514-2.512c-1.387,0-2.512,1.125-2.512,2.512V81.86L57.838,54.257   c-0.98-0.982-2.57-0.982-3.553,0C53.305,55.237,53.305,56.827,54.285,57.81z" style="paint-order: fill; fill-rule: nonzero; fill: rgb(255, 255, 255); stroke: rgb(255, 255, 255); stroke-width: 5.98367px;"/>
    <path d="M30.031,3.194c0-1.387-1.127-2.512-2.514-2.512H3.234c-1.389,0-2.514,1.125-2.514,2.512v24.289   c0,1.387,1.125,2.512,2.514,2.512c1.387,0,2.512-1.125,2.512-2.512V9.26l27.598,27.6c0.492,0.49,1.135,0.736,1.777,0.736   s1.285-0.246,1.777-0.736c0.98-0.98,0.98-2.57,0-3.553l-27.6-27.6h18.219C28.904,5.708,30.031,4.583,30.031,3.194z" style="paint-order: fill; fill-rule: nonzero; fill: rgb(255, 255, 255); stroke: rgb(255, 255, 255); stroke-width: 5.98367px;"/>
  </g>
</svg>