<?xml version="1.0" encoding="utf-8"?>
<svg viewBox="0 0 500 500" style="shape-rendering: geometricprecision;" xmlns="http://www.w3.org/2000/svg">
  <ellipse style="fill: rgb(125, 125, 125);" cx="250" cy="249.836" rx="250" ry="249.836"/>
  <g data-name="Layer 97" transform="matrix(-5, 0, 0, 5, 410, 90.000008)" style=""/>
  <g transform="matrix(3.658537, 0, 0, 3.658537, 67.073174, -3417.178711)" style="">
    <path style="font: medium Sans; text-indent: 0px; text-align: start; text-decoration: none; letter-spacing: normal; word-spacing: normal; text-transform: none; direction: ltr; writing-mode: lr-tb; text-anchor: start; baseline-shift: baseline; opacity: 1; color: rgb(0, 0, 0); fill-opacity: 1; marker: none; visibility: visible; display: inline; overflow: visible; fill: rgb(255, 255, 255); stroke-width: 3.00667px; stroke: rgb(255, 255, 255);" d="M 15 9 C 11.710594 9 9 11.71059 9 15 L 9 67 C 9 70.2894 11.710594 73 15 73 L 27 73 L 27 85 C 27 88.2894 29.710596 91 33 91 L 85 91 C 88.289404 91 91 88.2894 91 85 L 91 33 C 91 29.7106 88.289404 27 85 27 L 73 27 L 73 15 C 73 11.71059 70.289406 9 67 9 L 15 9 z M 15 13 L 67 13 C 68.142592 13 69 13.85741 69 15 L 69 27 L 33 27 C 29.710596 27 27 29.7106 27 33 L 27 69 L 15 69 C 13.857408 69 13 68.1426 13 67 L 13 15 C 13 13.85741 13.857408 13 15 13 z M 33 31 L 85 31 C 86.142593 31 87 31.85741 87 33 L 87 85 C 87 86.1426 86.142593 87 85 87 L 33 87 C 31.857407 87 31 86.1426 31 85 L 31 33 C 31 31.85741 31.857407 31 33 31 z M 58.78125 39.96875 A 2.0001996 2.0001996 0 0 0 57 42 L 57 57 L 42 57 A 2.0001996 2.0001996 0 0 0 41.8125 57 A 2.0021961 2.0021961 0 1 0 42 61 L 57 61 L 57 76 A 2.0001996 2.0001996 0 1 0 61 76 L 61 61 L 76 61 A 2.0001996 2.0001996 0 1 0 76 57 L 61 57 L 61 42 A 2.0001996 2.0001996 0 0 0 58.78125 39.96875 z " transform="translate(0,952.36218)"/>
  </g>
</svg>