<svg xmlns="http://www.w3.org/2000/svg" version="1.1" viewBox="-5.0 -10.0 110.0 135.0">
 <path d="m66.039 4.1641 0.007813 13.129c0.011719 3.0352 2.4609 5.4922 5.4883 5.5273l13.172 0.003907zm-38.336 24.559h23.027c0.96875 0 1.7578 0.78906 1.7578 1.7578 0 0.97266-0.78906 1.7578-1.7617 1.7578h-23.023c-0.97266 0-1.7617-0.78516-1.7617-1.7578 0-0.97266 0.78906-1.7578 1.7617-1.7578zm0 19.52h44.598c0.96875 0 1.7578 0.78516 1.7578 1.7578s-0.78906 1.7578-1.7617 1.7578h-44.594c-0.97266 0-1.7617-0.78516-1.7617-1.7578s0.78906-1.7578 1.7617-1.7578zm0 19.516v0.003907h44.598c0.96875 0 1.7578 0.78516 1.7578 1.7578 0 0.96875-0.78906 1.7578-1.7617 1.7578h-44.594c-0.97266 0-1.7617-0.78906-1.7617-1.7578 0-0.97266 0.78906-1.7617 1.7617-1.7617zm34.82-64.625h-33.371v0.003907-0.003907c-5.1914 0-9.8477 3.1836-11.738 8.0156-3.7578 9.6133-4.6602 25.875-4.6602 38.848 0 12.977 0.90234 29.238 4.6641 38.855 1.918 4.9023 6.6289 8.0156 11.734 8.0156h41.695c5.1055 0 9.8164-3.1133 11.734-8.0156 3.7617-9.6172 4.6641-25.879 4.6641-38.855 0-7.4297-0.29688-15.938-1.2539-23.656h-14.473c-4.9609-0.042969-8.9688-4.0664-8.9922-9.0312z"/>
<text x="0.0" y="117.5" font-size="5.0" font-weight="bold" font-family="Arbeit Regular, Helvetica, Arial-Unicode, Arial, Sans-serif" fill="#000000">Created by Feri Saputra</text><text x="0.0" y="122.5" font-size="5.0" font-weight="bold" font-family="Arbeit Regular, Helvetica, Arial-Unicode, Arial, Sans-serif" fill="#000000">from Noun Project</text></svg>