<?xml version="1.0" encoding="utf-8"?>
<svg viewBox="0 0 500 500" xmlns="http://www.w3.org/2000/svg">
  <path d="M 497.371 240.508 L 491.525 233.363 C 490.226 232.064 466.194 201.536 424.624 171.009 C 368.766 130.089 308.361 108.655 249.253 108.655 C 190.147 108.655 129.742 130.089 73.883 171.009 C 33.613 201.536 8.931 232.064 8.281 233.363 L 2.436 240.508 C -0.812 244.405 -0.812 250.251 2.436 254.148 L 8.281 261.292 C 9.581 262.591 33.613 293.119 75.182 323.646 C 131.041 364.566 191.446 386 250.552 386 C 309.659 386 370.065 364.566 425.924 323.646 C 467.493 293.119 491.525 262.591 492.824 261.292 L 498.67 254.148 C 500.619 250.251 500.619 244.405 497.371 240.508 Z M 249.903 353.524 C 190.797 353.524 143.382 306.11 143.382 247.003 C 143.382 187.897 190.797 140.482 249.903 140.482 C 309.009 140.482 356.425 187.897 356.425 247.003 C 356.425 306.11 309.009 353.524 249.903 353.524 Z" style="fill: rgb(245, 245, 245);" transform="matrix(-1, 0, 0, -1, 500.000122, 494.654999)"/>
  <circle style="fill: rgb(216, 216, 216);" cx="200.263" cy="204.611" r="26.753"/>
</svg>