<?xml version="1.0" encoding="utf-8"?>
<svg viewBox="0 0 100 100" width="800px" height="800px" fill="#ffffff"><path d="M6.7,39.5c2.3,0,4.2-1.9,4.2-4.2V20.6c0-2.8,2.3-5.1,5-5.1h14.4c2.3,0,4.2-1.9,4.2-4.2s-1.9-4.2-4.2-4.2H16     c-7.4,0-13.5,6.1-13.5,13.5v14.6C2.5,37.6,4.4,39.5,6.7,39.5z"/><path d="M84,7.1H69.6c-2.3,0-4.2,1.9-4.2,4.2s1.9,4.2,4.2,4.2H84c2.8,0,5.1,2.3,5.1,5.1v14.6c0,2.3,1.9,4.2,4.2,4.2     s4.2-1.9,4.2-4.2V20.6C97.5,13.2,91.4,7.1,84,7.1z"/><path d="M93.3,60.5c-2.3,0-4.2,1.9-4.2,4.2v14.6c0,2.8-2.3,5-5.1,5H69.6c-2.3,0-4.2,1.9-4.2,4.2c0,2.3,1.9,4.2,4.2,4.2H84     c7.4,0,13.5-6.1,13.5-13.5V64.8C97.5,62.4,95.6,60.5,93.3,60.5z"/><path d="M30.4,84.4H16c-2.8,0-5-2.3-5-5V64.8c0-2.3-1.9-4.2-4.2-4.2s-4.2,1.9-4.2,4.2v14.6c0,7.4,6.1,13.5,13.5,13.5h14.4     c2.3,0,4.2-1.9,4.2-4.2C34.6,86.3,32.7,84.4,30.4,84.4z"/><path d="M50,59c4.4,0,7.9-3.6,7.9-7.9c0-4.4-3.6-7.9-7.9-7.9s-7.9,3.6-7.9,7.9C42.1,55.4,45.6,59,50,59z"/><path d="M27.9,33.3c-3.3,0-6,2.7-6,6v25.5c0,3.3,2.7,6,6,6h44.1c3.3,0,6-2.7,6-6V39.3c0-3.3-2.7-6-6-6h-6.6     c-1.2,0-2.3-0.6-2.9-1.6L61,29.4c-1-1.6-2.7-2.5-4.6-2.5H43.5c-1.8,0-3.6,0.9-4.6,2.5l-1.5,2.4c-0.6,1-1.7,1.6-2.9,1.6H27.9z      M50,37.5c7.5,0,13.5,6.1,13.5,13.5c0,7.5-6.1,13.5-13.5,13.5S36.5,58.5,36.5,51C36.5,43.6,42.5,37.5,50,37.5z"/></svg>
