<svg xmlns="http://www.w3.org/2000/svg" data-name="Layer 1" viewBox="0 0 100 100" x="0px" y="0px"><path style="fill: rgb(245, 245, 245);" d="M98.44,43.73c-0.8-.51-7.11-4.28-9.61-5.43l-3.1-7.5c0.92-2.48,2.69-9.43,3-10.64a3.34,3.34,0,0,0-.9-3.1L82.94,12.2a3.32,3.32,0,0,0-3.1-.9c-0.92.21-8,2-10.64,3l-7.5-3.1c-1.09-2.4-4.76-8.55-5.43-9.61A3.32,3.32,0,0,0,53.44,0H46.56a3.35,3.35,0,0,0-2.83,1.56c-0.51.8-4.28,7.11-5.43,9.61l-7.5,3.1c-2.48-.92-9.43-2.69-10.64-3a3.34,3.34,0,0,0-3.1.9L12.2,17.06a3.32,3.32,0,0,0-.9,3.1c0.21,0.92,2,8,3,10.64l-3.1,7.5c-2.4,1.09-8.55,4.76-9.61,5.43A3.32,3.32,0,0,0,0,46.56v6.87a3.35,3.35,0,0,0,1.56,2.83c0.8,0.51,7.11,4.28,9.61,5.43l3.1,7.5c-0.92,2.48-2.69,9.43-3,10.64a3.34,3.34,0,0,0,.9,3.1l4.86,4.86a3.32,3.32,0,0,0,3.1.9c0.92-.21,8-2,10.64-3l7.5,3.1c1.09,2.4,4.76,8.55,5.43,9.61A3.32,3.32,0,0,0,46.56,100h6.87a3.35,3.35,0,0,0,2.83-1.56c0.51-.8,4.28-7.11,5.43-9.61l7.5-3.1c2.48,0.92,9.43,2.69,10.64,3a3.34,3.34,0,0,0,3.1-.9l4.86-4.86a3.32,3.32,0,0,0,.9-3.1c-0.21-.92-2-8-3-10.64l3.1-7.5c2.4-1.09,8.55-4.76,9.61-5.43A3.32,3.32,0,0,0,100,53.44V46.56A3.3,3.3,0,0,0,98.44,43.73ZM50,71.77A21.79,21.79,0,1,1,71.81,50,21.82,21.82,0,0,1,50,71.77Z"/></svg>