<?xml version="1.0" encoding="utf-8"?>
<svg viewBox="0 0 500 500" xmlns="http://www.w3.org/2000/svg">
  <path style="fill: rgb(255, 255, 255);" d="M 394.888 398.259 L 401.893 405.265 C 440.953 366.2 465.113 312.237 465.113 252.632 C 465.113 193.028 440.953 139.064 401.893 100 L 394.888 107.005 C 432.196 144.318 455.302 195.829 455.302 252.632 C 455.302 309.436 432.196 360.951 394.888 398.259 Z"/>
  <path style="fill: rgb(255, 255, 255);" d="M 103.634 398.259 C 66.326 360.951 43.219 309.436 43.219 252.632 C 43.219 195.829 66.326 144.318 103.634 107.01 L 96.628 100.005 C 57.569 139.064 33.408 193.028 33.408 252.632 C 33.408 312.237 57.569 366.2 96.628 405.265 L 103.634 398.259 Z"/>
  <path style="fill: rgb(255, 255, 255);" d="M 360.263 363.64 C 388.672 335.23 406.245 295.984 406.245 252.632 C 406.245 209.28 388.672 170.034 360.263 141.63 L 353.277 148.616 C 379.925 175.264 396.433 212.057 396.433 252.632 C 396.433 293.208 379.925 330.001 353.277 356.649 L 360.263 363.64 Z"/>
  <path style="fill: rgb(255, 255, 255);" d="M 145.244 356.649 C 118.596 330.001 102.088 293.208 102.088 252.632 C 102.088 212.057 118.591 175.264 145.244 148.616 L 138.258 141.63 C 109.849 170.039 92.277 209.285 92.277 252.632 C 92.277 295.984 109.849 335.23 138.258 363.635 L 145.244 356.649 Z"/>
  <path style="fill: rgb(255, 255, 255);" d="M 318.638 322.009 C 336.392 304.256 347.376 279.727 347.376 252.632 C 347.376 225.538 336.392 201.009 318.638 183.255 L 311.672 190.222 C 327.659 206.209 337.564 228.285 337.564 252.632 C 337.564 276.98 327.659 299.055 311.672 315.043 L 318.638 322.009 Z"/>
  <path style="fill: rgb(255, 255, 255);" d="M 186.85 315.043 C 170.862 299.055 160.957 276.98 160.957 252.632 C 160.957 228.285 170.862 206.209 186.85 190.222 L 179.884 183.255 C 162.13 201.009 151.146 225.538 151.146 252.632 C 151.146 279.727 162.13 304.256 179.884 322.009 L 186.85 315.043 Z"/>
  <circle style="fill: rgb(255, 255, 255);" cx="249.383" cy="252.206" r="34.973"/>
</svg>