<?xml version="1.0" encoding="utf-8"?>
<svg viewBox="0 0 500 500" xmlns="http://www.w3.org/2000/svg">
  <g transform="matrix(5.46305, 0, 0, 5.46305, -24.927898, -16.217884)" style="">
    <path d="M4.563,37.324l0.066-8.092C5.483,18.214,14.247,9.458,25.263,8.599c12.358-0.958,23.156,8.274,24.113,20.633l0.073,8.092   h-8.092v-6.355c0-7.922-6.424-14.351-14.352-14.351c-7.929,0-14.357,6.429-14.357,14.351v6.355H4.563z" style="fill: rgb(225, 225, 225);"/>
  </g>
  <path d="M 170.78 187.685 L 476.449 187.685 C 489.479 187.685 500 198.235 500 211.22 L 500 446.016 C 500 459.035 489.479 469.556 476.449 469.556 L 170.78 469.556 C 157.8 469.556 147.245 459.035 147.245 446.016 L 147.245 211.215 C 147.245 198.235 157.8 187.685 170.78 187.685 Z M 361.304 261.06 C 348.914 240.25 321.954 233.46 301.145 245.845 C 280.336 258.261 273.506 285.195 285.93 306.036 C 289.656 312.296 294.885 317.525 301.145 321.246 L 301.145 415.325 L 346.116 415.325 L 346.116 321.24 C 366.931 308.832 373.716 281.895 361.304 261.06 Z" style="fill: rgb(225, 225, 225);"/>
</svg>