<svg xmlns="http://www.w3.org/2000/svg" version="1.1" fill="#ffffff" viewBox="-5.0 -10.0 110.0 115.0">
 <path d="m14.559 24.676h6.3438v6.3438h-6.3438v-6.3398zm64.539 0h6.3438v6.3438h-6.3438v-6.3398zm-64.539 14.77h6.3438v6.3398c-2.1133 0-4.2266 0.003906-6.3438 0.003906v-6.3438zm64.539 0h6.3438v6.3398c-2.1172 0-4.2305 0.003906-6.3438 0.003906v-6.3438zm-64.539 14.766 3.1719 0.003906h3.1719v6.3398h-6.3438v-6.3398zm64.539 0 3.1719 0.003906h3.1719v6.3398h-6.3438v-6.3398zm-41.07-21.672c0.84375 0 1.6797 0.19531 2.4453 0.58203l23.98 11.984c1.8555 0.92969 3.0234 2.8281 3.0234 4.8945s-1.1641 3.9688-3.0312 4.8945l-23.973 11.988c-0.77344 0.38672-1.6094 0.57813-2.4453 0.57813-1 0-1.9961-0.27734-2.8711-0.8125l-0.003906-0.003907c-1.6172-0.99609-2.5938-2.7617-2.5938-4.6562l0.003906-23.738c-0.039062-0.90625 0.14453-1.832 0.57422-2.6836 0.95703-1.9219 2.8906-3.0234 4.8867-3.0234h0.003906zm-23.469 36.441h6.3438v6.3438h-6.3438v-6.3398zm64.539 0h6.3438v6.3438h-6.3438v-6.3398zm-64.906-56.227v0.003906c-4.5352 0-8.2852 3.3398-8.9258 7.6953-0.003906 0.019531-0.007813 0.035156-0.007813 0.035156-1.4297 7.8047-2.1328 18.559-2.1328 29.508 0 11.141 0.71094 22.031 2.1953 29.867l0.003907 0.035157c0.80859 4.2617 4.5312 7.3477 8.8711 7.3477h71.609c4.3398 0 8.0625-3.0859 8.8711-7.3477l0.003907-0.035157c1.4844-7.8359 2.1953-18.727 2.1953-29.867 0-10.949-0.70312-21.703-2.1328-29.508-0.003907-0.015625-0.007813-0.035156-0.007813-0.035156-0.64062-4.3555-4.3945-7.6992-8.9258-7.6992l-0.003906 0.003906h-71.609z"/></svg>