<?xml version="1.0" encoding="utf-8"?>
<svg viewBox="0 0 500 500" xmlns="http://www.w3.org/2000/svg">
  <path style="fill: rgb(255, 255, 255);" d="M 288.451 249.601 C 288.451 178.997 338.583 137.002 403.412 137.002 C 461.417 137.002 500 166.661 500 207.606 C 500 246.189 466.929 271.386 430.709 271.386 C 410.236 271.386 395.538 267.973 385.302 260.099 C 381.89 256.687 379.528 257.737 379.528 261.149 C 379.528 275.847 385.302 287.396 394.226 297.632 C 402.1 305.506 417.06 311.281 430.709 311.281 C 445.407 311.281 458.005 307.868 469.291 302.094 C 480.577 296.32 489.764 298.682 495.538 307.868 C 502.362 318.105 493.176 331.753 485.302 340.939 C 470.604 356.95 441.995 368.236 405.774 368.236 C 331.759 365.611 288.451 315.742 288.451 249.601 Z M 137.27 296.32 C 144.094 296.32 148.556 299.732 153.281 307.606 L 173.753 340.677 C 181.627 353.275 188.451 362.199 203.412 362.199 C 218.11 362.199 226.247 356.425 233.071 339.365 C 242.257 318.892 252.493 292.645 260.367 258.525 C 270.604 219.942 275.066 197.107 275.066 177.685 C 275.066 158.262 269.291 146.976 247.769 143.564 C 219.423 137.79 179.528 135.69 137.533 135.69 C 95.538 135.69 55.643 138.052 27.297 142.514 C 5.774 146.976 0 158.525 0 177.685 C 0 196.845 4.462 219.68 13.648 258.525 C 22.835 292.645 31.759 317.58 40.945 339.365 C 48.819 356.425 55.643 362.199 70.604 362.199 C 85.302 362.199 92.126 353.013 100.262 340.677 L 120.735 307.606 C 125.722 300.782 130.446 296.32 137.27 296.32 Z"/>
</svg>